<svg width="29" height="30" viewBox="0 0 29 30" fill="none" xmlns="http://www.w3.org/2000/svg">
<path d="M16.3772 29.64C14.1372 29.64 12.0572 29.2933 10.1372 28.6C8.24385 27.88 6.59052 26.8667 5.17719 25.56C3.79052 24.2533 2.71052 22.7067 1.93719 20.92C1.16385 19.1333 0.777188 17.16 0.777188 15C0.777188 12.84 1.16385 10.8667 1.93719 9.08C2.71052 7.29333 3.79052 5.74667 5.17719 4.44C6.59052 3.13333 8.24385 2.13333 10.1372 1.44C12.0572 0.719999 14.1372 0.359999 16.3772 0.359999C19.1239 0.359999 21.5505 0.839999 23.6572 1.8C25.7905 2.76 27.5505 4.14666 28.9372 5.96L22.9772 11.28C22.1505 10.24 21.2305 9.44 20.2172 8.88C19.2305 8.29333 18.1105 8 16.8572 8C15.8705 8 14.9772 8.16 14.1772 8.48C13.3772 8.8 12.6839 9.26667 12.0972 9.88C11.5372 10.4933 11.0972 11.24 10.7772 12.12C10.4572 12.9733 10.2972 13.9333 10.2972 15C10.2972 16.0667 10.4572 17.04 10.7772 17.92C11.0972 18.7733 11.5372 19.5067 12.0972 20.12C12.6839 20.7333 13.3772 21.2 14.1772 21.52C14.9772 21.84 15.8705 22 16.8572 22C18.1105 22 19.2305 21.72 20.2172 21.16C21.2305 20.5733 22.1505 19.76 22.9772 18.72L28.9372 24.04C27.5505 25.8267 25.7905 27.2133 23.6572 28.2C21.5505 29.16 19.1239 29.64 16.3772 29.64Z" fill="black"/>
</svg>
