<svg width="80" height="46" viewBox="0 0 80 46" fill="none" xmlns="http://www.w3.org/2000/svg">
<path d="M77.5 43.5417C76.4583 44.5834 75.225 45.1042 73.8 45.1042C72.375 45.1042 71.1431 44.5834 70.1042 43.5417L39.5833 13.0209L8.95833 43.6459C7.98611 44.6181 6.77083 45.1042 5.3125 45.1042C3.85417 45.1042 2.60417 44.5834 1.5625 43.5417C0.520833 42.5001 0 41.2667 0 39.8417C0 38.4167 0.520833 37.1848 1.5625 36.1459L36.6667 1.14591C37.0833 0.729244 37.5347 0.433414 38.0208 0.258415C38.5069 0.083416 39.0278 -0.00269699 39.5833 8.01086e-05C40.1389 8.01086e-05 40.6597 0.0875778 41.1458 0.262577C41.6319 0.43758 42.0833 0.732021 42.5 1.14591L77.6042 36.2501C78.5764 37.2223 79.0625 38.4209 79.0625 39.8459C79.0625 41.2709 78.5417 42.5029 77.5 43.5417Z" fill="#1E1E1E"/>
</svg>
